{
	"scenes":[{
		"nodes":[0]
	}],
	"asset":{
		"version":"2.0",
		"generator":"Maxon Cinema 4D 2023.2.2 (#200000219)"
	},
	"nodes":[{
		"name":"coffee1",
		"mesh":0
	}],
	"meshes":[{
		"name":"coffee1",
		"primitives":[{
			"attributes":{
				"POSITION":1,
				"NORMAL":2,
				"TEXCOORD_0":3
			},
			"indices":0,
			"material":0
		}]
	}],
	"accessors":[{
		"bufferView":0,
		"type":"SCALAR",
		"componentType":5123,
		"count":88614,
		"byteOffset":0,
		"min":[0],
		"max":[14980]
	},
	{
		"bufferView":1,
		"type":"VEC3",
		"componentType":5126,
		"count":14981,
		"byteOffset":0,
		"min":[-0.0053125168196856979,
		-0.006955093238502741,
		-0.003819231642410159],
		"max":[0.00554394768550992,
		0.00637250067666173,
		0.0016193593619391323]
	},
	{
		"bufferView":1,
		"type":"VEC3",
		"componentType":5126,
		"count":14981,
		"byteOffset":12,
		"min":[-0.9999994039535523,
		-0.9986902475357056,
		-0.9999947547912598],
		"max":[0.9994785189628601,
		0.9998651146888733,
		0.9999391436576843]
	},
	{
		"bufferView":1,
		"type":"VEC2",
		"componentType":5126,
		"count":14981,
		"byteOffset":24,
		"min":[0.0,
		0.09999996423721314],
		"max":[0.943567156791687,
		1.0]
	}],
	"bufferViews":[{
		"buffer":0,
		"byteOffset":0,
		"byteLength":177228,
		"target":34963
	},
	{
		"buffer":0,
		"byteOffset":177228,
		"byteLength":479392,
		"target":34962,
		"byteStride":32
	}],
	"buffers":[{
		"uri":"data:application/octet-stream;base64,",
		"byteLength":656620
	}],
	"materials":[{
		"pbrMetallicRoughness":{
			"baseColorFactor":[1.0,
			1.0,
			1.0,
			1.0],
			"metallicFactor":1.0,
			"roughnessFactor":1.0
		},
		"emissiveFactor":[0.0,
		0.0,
		0.0],
		"alphaMode":"OPAQUE",
		"doubleSided":false,
		"name":""
	}]
}